<svg xmlns="http://www.w3.org/2000/svg" viewBox="0 0 1600 800"><defs><linearGradient id="bg" x1="0" y1="0" x2="1" y2="1"><stop stop-color="#08090b"/><stop offset=".65" stop-color="#16070b"/><stop offset="1" stop-color="#2c0710"/></linearGradient><radialGradient id="rg"><stop stop-color="#ff1738" stop-opacity=".52"/><stop offset="1" stop-color="#ff1738" stop-opacity="0"/></radialGradient></defs><g transform="translate(0,0)"><rect x="8" y="8" width="384" height="384" rx="26" fill="url(#bg)" stroke="#ff2946" stroke-width="4"/><ellipse cx="250" cy="140" rx="190" ry="150" fill="url(#rg)" opacity=".55"/><path d="M-20 300 L300 50M120 400 L440 120" stroke="#ff1738" stroke-width="5" opacity=".45"/><circle cx="62" cy="65" r="36" fill="#141015" stroke="#ff1738" stroke-width="2"/><text x="62" y="77" text-anchor="middle" font-size="34">👥</text><text x="110" y="60" fill="#ff455a" font-family="Arial Black,Arial" font-size="16" letter-spacing="2">PLAY NOW</text><text x="28" y="292" fill="#fff" font-family="Arial Black,Arial" font-size="30">Partida amistosa agora</text><circle cx="34" cy="340" r="8" fill="#22e477"/><text x="54" y="348" fill="#c9ced5" font-family="Arial" font-size="20">12 jogadores</text><text x="360" y="346" fill="#fff" font-family="Arial" font-size="34" text-anchor="middle">›</text></g><g transform="translate(400,0)"><rect x="8" y="8" width="384" height="384" rx="26" fill="url(#bg)" stroke="#ff2946" stroke-width="4"/><ellipse cx="250" cy="140" rx="190" ry="150" fill="url(#rg)" opacity=".55"/><path d="M-20 300 L300 50M120 400 L440 120" stroke="#ff1738" stroke-width="5" opacity=".45"/><circle cx="62" cy="65" r="36" fill="#141015" stroke="#ff1738" stroke-width="2"/><text x="62" y="77" text-anchor="middle" font-size="34">🎮</text><text x="110" y="60" fill="#ff455a" font-family="Arial Black,Arial" font-size="16" letter-spacing="2">DUO MATCH</text><text x="28" y="292" fill="#fff" font-family="Arial Black,Arial" font-size="30">Coop 2v2</text><circle cx="34" cy="340" r="8" fill="#22e477"/><text x="54" y="348" fill="#c9ced5" font-family="Arial" font-size="20">8 jogadores</text><text x="360" y="346" fill="#fff" font-family="Arial" font-size="34" text-anchor="middle">›</text></g><g transform="translate(800,0)"><rect x="8" y="8" width="384" height="384" rx="26" fill="url(#bg)" stroke="#ff2946" stroke-width="4"/><ellipse cx="250" cy="140" rx="190" ry="150" fill="url(#rg)" opacity=".55"/><path d="M-20 300 L300 50M120 400 L440 120" stroke="#ff1738" stroke-width="5" opacity=".45"/><circle cx="62" cy="65" r="36" fill="#141015" stroke="#ff1738" stroke-width="2"/><text x="62" y="77" text-anchor="middle" font-size="34">📱</text><text x="110" y="60" fill="#ff455a" font-family="Arial Black,Arial" font-size="16" letter-spacing="2">RANKED</text><text x="28" y="292" fill="#fff" font-family="Arial Black,Arial" font-size="30">Mobile ranqueada</text><circle cx="34" cy="340" r="8" fill="#22e477"/><text x="54" y="348" fill="#c9ced5" font-family="Arial" font-size="20">15 jogadores</text><text x="360" y="346" fill="#fff" font-family="Arial" font-size="34" text-anchor="middle">›</text></g><g transform="translate(1200,0)"><rect x="8" y="8" width="384" height="384" rx="26" fill="url(#bg)" stroke="#ff2946" stroke-width="4"/><ellipse cx="250" cy="140" rx="190" ry="150" fill="url(#rg)" opacity=".55"/><path d="M-20 300 L300 50M120 400 L440 120" stroke="#ff1738" stroke-width="5" opacity=".45"/><circle cx="62" cy="65" r="36" fill="#141015" stroke="#ff1738" stroke-width="2"/><text x="62" y="77" text-anchor="middle" font-size="34">⚽</text><text x="110" y="60" fill="#ff455a" font-family="Arial Black,Arial" font-size="16" letter-spacing="2">TRAINING</text><text x="28" y="292" fill="#fff" font-family="Arial Black,Arial" font-size="30">Treino hoje 22h</text><circle cx="34" cy="340" r="8" fill="#22e477"/><text x="54" y="348" fill="#c9ced5" font-family="Arial" font-size="20">6 jogadores</text><text x="360" y="346" fill="#fff" font-family="Arial" font-size="34" text-anchor="middle">›</text></g><g transform="translate(0,400)"><rect x="8" y="8" width="384" height="384" rx="26" fill="url(#bg)" stroke="#ff2946" stroke-width="4"/><ellipse cx="250" cy="140" rx="190" ry="150" fill="url(#rg)" opacity=".55"/><path d="M-20 300 L300 50M120 400 L440 120" stroke="#ff1738" stroke-width="5" opacity=".45"/><circle cx="62" cy="65" r="36" fill="#141015" stroke="#ff1738" stroke-width="2"/><text x="62" y="77" text-anchor="middle" font-size="34">😂</text><text x="110" y="60" fill="#ff455a" font-family="Arial Black,Arial" font-size="16" letter-spacing="2">RESENHA</text><text x="28" y="292" fill="#fff" font-family="Arial Black,Arial" font-size="30">Memes da comunidade</text><circle cx="34" cy="340" r="8" fill="#22e477"/><text x="54" y="348" fill="#c9ced5" font-family="Arial" font-size="20">Ria e marque os amigos</text><text x="360" y="346" fill="#fff" font-family="Arial" font-size="34" text-anchor="middle">›</text></g><g transform="translate(400,400)"><rect x="8" y="8" width="384" height="384" rx="26" fill="url(#bg)" stroke="#ff2946" stroke-width="4"/><ellipse cx="250" cy="140" rx="190" ry="150" fill="url(#rg)" opacity=".55"/><path d="M-20 300 L300 50M120 400 L440 120" stroke="#ff1738" stroke-width="5" opacity=".45"/><circle cx="62" cy="65" r="36" fill="#141015" stroke="#ff1738" stroke-width="2"/><text x="62" y="77" text-anchor="middle" font-size="34">🗣️</text><text x="110" y="60" fill="#ff455a" font-family="Arial Black,Arial" font-size="16" letter-spacing="2">DEBATE</text><text x="28" y="292" fill="#fff" font-family="Arial Black,Arial" font-size="30">Discussões</text><circle cx="34" cy="340" r="8" fill="#22e477"/><text x="54" y="348" fill="#c9ced5" font-family="Arial" font-size="20">Atualizações, táticas e mais</text><text x="360" y="346" fill="#fff" font-family="Arial" font-size="34" text-anchor="middle">›</text></g><g transform="translate(800,400)"><rect x="8" y="8" width="384" height="384" rx="26" fill="url(#bg)" stroke="#ff2946" stroke-width="4"/><ellipse cx="250" cy="140" rx="190" ry="150" fill="url(#rg)" opacity=".55"/><path d="M-20 300 L300 50M120 400 L440 120" stroke="#ff1738" stroke-width="5" opacity=".45"/><circle cx="62" cy="65" r="36" fill="#141015" stroke="#ff1738" stroke-width="2"/><text x="62" y="77" text-anchor="middle" font-size="34">🔥</text><text x="110" y="60" fill="#ff455a" font-family="Arial Black,Arial" font-size="16" letter-spacing="2">PÓS-JOGO</text><text x="28" y="292" fill="#fff" font-family="Arial Black,Arial" font-size="30">Conversa pós-jogo</text><circle cx="34" cy="340" r="8" fill="#22e477"/><text x="54" y="348" fill="#c9ced5" font-family="Arial" font-size="20">Vitórias e análise de partidas</text><text x="360" y="346" fill="#fff" font-family="Arial" font-size="34" text-anchor="middle">›</text></g><g transform="translate(1200,400)"><rect x="8" y="8" width="384" height="384" rx="26" fill="url(#bg)" stroke="#ff2946" stroke-width="4"/><ellipse cx="250" cy="140" rx="190" ry="150" fill="url(#rg)" opacity=".55"/><path d="M-20 300 L300 50M120 400 L440 120" stroke="#ff1738" stroke-width="5" opacity=".45"/><circle cx="62" cy="65" r="36" fill="#141015" stroke="#ff1738" stroke-width="2"/><text x="62" y="77" text-anchor="middle" font-size="34">💡</text><text x="110" y="60" fill="#ff455a" font-family="Arial Black,Arial" font-size="16" letter-spacing="2">IDEIAS</text><text x="28" y="292" fill="#fff" font-family="Arial Black,Arial" font-size="30">Troca de ideias</text><circle cx="34" cy="340" r="8" fill="#22e477"/><text x="54" y="348" fill="#c9ced5" font-family="Arial" font-size="20">Dicas, táticas e formações</text><text x="360" y="346" fill="#fff" font-family="Arial" font-size="34" text-anchor="middle">›</text></g></svg>